<?xml version="1.0" encoding="utf-8"?>
<!-- Generator: Adobe Illustrator 27.3.1, SVG Export Plug-In . SVG Version: 6.00 Build 0)  -->
<svg version="1.1" id="Calque_1" xmlns="http://www.w3.org/2000/svg" xmlns:xlink="http://www.w3.org/1999/xlink" x="0px" y="0px"
	 viewBox="0 0 136 98" style="enable-background:new 0 0 136 98;" xml:space="preserve">
<style type="text/css">
	.st0{fill:none;stroke:#020203;stroke-width:2.7813;stroke-miterlimit:10;}
</style>
<path class="st0" d="M56.6,32.2c6.2,3.9,13.9,2.4,17.4-2.7c3.5-4.9,2.2-11.7-1.3-15.4c-4.9-5.1-14.3-3.8-19.7-0.6
	c-12.9,7.6-17,34.1-5.3,51.2c7.8,11.4,23.3,19.6,37.2,15.9c9.3-2.5,20.5-11.2,19.4-20.3c-0.7-5.5-5.8-11.3-11.4-11.5
	c-6.4-0.2-13.4,7-13.2,17.6c-2.1-0.4-11.5-2.6-18-11.7C54.2,44.9,56.3,34,56.6,32.2z"/>
</svg>
