<?xml version="1.0" encoding="utf-8"?>
<!-- Generator: Adobe Illustrator 27.3.1, SVG Export Plug-In . SVG Version: 6.00 Build 0)  -->
<svg version="1.1" id="Calque_1" xmlns="http://www.w3.org/2000/svg" xmlns:xlink="http://www.w3.org/1999/xlink" x="0px" y="0px"
	 viewBox="0 0 136 98" style="enable-background:new 0 0 136 98;" xml:space="preserve">
<style type="text/css">
	.st0{fill:none;stroke:#020203;stroke-width:2.8881;stroke-miterlimit:10;}
</style>
<path class="st0" d="M54.5,39.8c6.4,4.1,14.4,2.5,18.1-2.8c3.6-5.1,2.3-12.2-1.4-16c-5.1-5.3-14.9-3.9-20.5-0.6
	C37.3,28.3,33,55.8,45.2,73.6c8.1,11.8,24.2,20.4,38.6,16.5c9.7-2.6,21.3-11.6,20.1-21.1c-0.7-5.7-6-11.7-11.8-11.9
	c-6.6-0.2-13.9,7.3-13.7,18.3c-2.2-0.4-11.9-2.7-18.7-12.1C52.1,52.9,54.2,41.6,54.5,39.8z"/>
</svg>
